<svg width="56" height="54" viewBox="0 0 56 54" fill="none" xmlns="http://www.w3.org/2000/svg">
<path fill-rule="evenodd" clip-rule="evenodd" d="M28.4888 45.7565C29.1767 39.8976 32.8054 34.4491 36.3002 32.6717C33.7602 29.391 32.3087 25.0751 31.8884 21.7941H27.9925H24.1156C23.6763 25.0751 22.2249 29.391 19.6848 32.6717C23.1797 34.4491 26.8276 39.8976 27.5151 45.7565V32.3203C26.9421 32.1252 26.5218 31.5586 26.5218 30.8946C26.5218 30.0744 27.1904 29.3911 27.9925 29.3911C28.8138 29.3911 29.4632 30.0744 29.4632 30.8946C29.4632 31.5586 29.0619 32.1252 28.4888 32.3203V45.7565ZM27.9925 15.1348L38.153 17.9469L31.8884 19.6653V21.1498H24.1156V19.6653L23.027 19.3723L28.0496 18.2982C28.1645 18.2789 28.2408 18.1618 28.2027 18.025V18.0053C28.1834 18.0837 28.1259 18.1421 28.0496 18.1617L22.1867 19.4116V21.6378C22.2823 21.7159 22.3587 21.8331 22.3587 21.9892C22.3587 22.087 22.3202 22.1848 22.263 22.2628L22.3202 22.4384L22.683 23.7079H21.9573H21.2316L21.5945 22.4384L21.6519 22.2431C21.5945 22.1651 21.5566 22.087 21.5566 21.9892C21.5566 21.8331 21.633 21.7159 21.7472 21.6378V19.4506C21.7472 19.2748 21.7283 19.0599 21.8046 19.0402L17.832 17.9468L27.9925 15.1348Z" fill="#890C25"/>
<path fill-rule="evenodd" clip-rule="evenodd" d="M42.0298 48.3347C40.8459 48.1979 39.7381 48.7057 39.0506 49.604C39.5091 50.639 40.4831 51.4008 41.6669 51.5373C42.8511 51.6934 43.959 51.1662 44.6462 50.268C44.188 49.2329 43.214 48.4712 42.0298 48.3347ZM37.5228 50.7561C36.396 50.3654 35.1929 50.6193 34.3523 51.3614C34.601 52.4749 35.3838 53.4314 36.5106 53.8222C37.6566 54.2129 38.8404 53.9393 39.7 53.1972C39.4519 52.1038 38.6688 51.1468 37.5228 50.7561ZM43.042 11.2682C43.6725 12.1471 44.6462 12.6159 45.6206 12.6352L45.7733 12.8111C48.5998 16.2482 50.3185 20.3493 50.8723 24.6262C51.4264 28.8835 50.8152 33.3166 48.9627 37.3787C47.1099 41.4407 44.188 44.7608 40.6547 47.0848C37.8092 48.9203 34.5435 50.1312 31.125 50.5412V51.2052C34.6773 50.7952 38.0576 49.5649 40.9986 47.651C44.6462 45.2686 47.664 41.8312 49.5546 37.652C51.4645 33.4728 52.0947 28.9225 51.5217 24.5285C50.9487 20.1344 49.1918 15.9162 46.2889 12.3813L46.1169 12.1861C46.3652 11.2291 46.1936 10.1744 45.5632 9.33491C44.8563 8.35825 43.7107 7.88981 42.6028 7.98722C42.2018 9.04199 42.3163 10.2919 43.042 11.2682ZM43.5005 16.2872C44.7037 16.2482 45.7159 15.5645 46.27 14.5685C45.6585 13.6115 44.5891 13.0063 43.4049 13.0453C42.2018 13.0844 41.1703 13.768 40.6358 14.7641C41.247 15.721 42.3163 16.3263 43.5005 16.2872ZM45.7541 20.3296C46.9193 20.5835 48.0651 20.1734 48.8289 19.3533C48.4661 18.2792 47.5687 17.42 46.4034 17.1661C45.2385 16.9122 44.0736 17.3222 43.3097 18.1424C43.6914 19.2165 44.5699 20.0757 45.7541 20.3296ZM46.9572 24.8017C48.0458 25.3486 49.2492 25.2315 50.204 24.6262C50.0895 23.4935 49.4208 22.4387 48.3515 21.8922C47.2821 21.3646 46.0598 21.4624 45.1239 22.0874C45.2385 23.2202 45.8878 24.2552 46.9572 24.8017ZM47.091 29.4498C48.0079 30.2309 49.2107 30.4264 50.2615 30.0747C50.4331 28.9422 50.0513 27.7508 49.1344 26.9696C48.2178 26.1885 46.9957 25.9933 45.9449 26.3447C45.7733 27.4774 46.1744 28.6493 47.091 29.4498ZM46.1169 33.9806C46.8044 34.9766 47.9315 35.4648 49.058 35.367C49.4783 34.3126 49.383 33.0824 48.6762 32.0864C47.9694 31.0904 46.843 30.6019 45.7349 30.6997C45.3148 31.7544 45.4104 32.9846 46.1169 33.9806ZM44.0928 38.1405C44.532 39.273 45.5057 40.0347 46.6136 40.2106C47.2822 39.312 47.4728 38.0621 47.0335 36.9296C46.5754 35.7968 45.6013 35.0547 44.5128 34.8595C43.8441 35.7774 43.6532 37.0077 44.0928 38.1405ZM41.1514 41.675C41.3041 42.8859 42.0872 43.8622 43.0995 44.3116C43.959 43.5889 44.4364 42.4368 44.2834 41.2259C44.1118 40.015 43.3478 39.0581 42.3163 38.5896C41.4568 39.312 40.9797 40.4641 41.1514 41.675ZM37.4464 44.3897C37.3126 45.6003 37.8474 46.7331 38.7259 47.4168C39.7381 46.9283 40.4639 45.9323 40.5977 44.7218C40.7311 43.5109 40.1966 42.3781 39.3181 41.675C38.3248 42.1631 37.5802 43.1592 37.4464 44.3897ZM33.2259 46.0887C32.8055 47.2409 33.0535 48.4712 33.7414 49.35C34.83 49.1352 35.7848 48.354 36.2051 47.2019C36.6058 46.0497 36.3768 44.8192 35.6895 43.9406C34.5817 44.1552 33.6266 44.9366 33.2259 46.0887ZM47.2437 11.7564C47.2247 12.9672 47.8549 14.061 48.7907 14.6663C49.7458 14.0804 50.3952 13.0062 50.4141 11.7954C50.4141 10.5651 49.803 9.49107 48.8671 8.88578C47.8931 9.47137 47.263 10.5261 47.2437 11.7564ZM50.0702 16.0724C49.803 17.2635 50.1851 18.4551 50.9871 19.2556C52.0372 18.8845 52.8968 17.9863 53.1451 16.7951C53.4123 15.6036 53.0306 14.4124 52.2285 13.6116C51.1781 13.9829 50.3186 14.8811 50.0702 16.0724ZM51.942 20.9155C51.4453 22.0286 51.5791 23.2592 52.2095 24.2162C53.3171 24.0794 54.3293 23.3763 54.8259 22.2632C55.3226 21.1501 55.1888 19.9001 54.5583 18.9625C53.4509 19.0994 52.4386 19.8024 51.942 20.9155ZM52.8015 26.0323C52.0947 27.0086 51.9609 28.2585 52.3812 29.3133C53.4887 29.4107 54.6347 28.9422 55.3415 27.9656C56.0483 26.9893 56.1818 25.7393 55.7618 24.6846C54.654 24.5872 53.508 25.0557 52.8015 26.0323ZM52.5913 31.2268C51.6936 32.0276 51.3307 33.2385 51.5217 34.3516C52.5913 34.6837 53.7944 34.4687 54.6921 33.668C55.5895 32.8478 55.9524 31.6566 55.7618 30.5435C54.6922 30.1918 53.4887 30.4264 52.5913 31.2268ZM51.35 36.2656C50.2993 36.8708 49.7074 37.9449 49.6499 39.0971C50.6243 39.6439 51.8466 39.683 52.8967 39.0971C53.9282 38.4918 54.5394 37.398 54.5772 36.2656C53.6036 35.699 52.3812 35.66 51.35 36.2656ZM49.0965 40.9329C47.9505 41.2846 47.1484 42.2219 46.8619 43.335C47.7021 44.0771 48.8863 44.3897 50.0323 44.0187C51.178 43.6476 51.9801 42.71 52.2666 41.6166C51.4264 40.8549 50.2422 40.5619 49.0965 40.9329ZM45.9449 45.0147C44.7611 45.1121 43.7678 45.8738 43.2711 46.8892C43.9397 47.8072 45.0476 48.354 46.2314 48.2369C47.4156 48.1198 48.4086 47.3777 48.9053 46.362C48.237 45.4441 47.1291 44.8972 45.9449 45.0147Z" fill="#890C25"/>
<path fill-rule="evenodd" clip-rule="evenodd" d="M18.4629 50.7561C19.5897 50.3654 20.7927 50.6193 21.6523 51.3614C21.404 52.4749 20.6211 53.4314 19.4751 53.8222C18.3484 54.2129 17.1453 53.9393 16.3047 53.1972C16.5533 52.1038 17.3361 51.1468 18.4629 50.7561ZM12.9625 11.2682C12.3324 12.1471 11.3584 12.6159 10.365 12.6352L10.2123 12.8111C7.40504 16.2482 5.66708 20.3493 5.11332 24.6262C4.55923 28.8835 5.18966 33.3166 7.02293 37.3787C8.87575 41.4407 11.7976 44.7608 15.3498 47.0848C18.1953 48.9203 21.4421 50.1312 24.8799 50.5412V51.2052C21.3084 50.7952 17.9473 49.5649 14.987 47.651C11.3394 45.2686 8.34058 41.8312 6.43097 37.652C4.54029 33.4728 3.89093 28.9225 4.46396 24.5285C5.03698 20.1345 6.8128 15.9162 9.71569 12.3813L9.86874 12.1861C9.63935 11.2291 9.81129 10.1744 10.4225 9.33491C11.1482 8.35825 12.275 7.88981 13.3829 7.98722C13.8032 9.04199 13.6693 10.2919 12.9625 11.2682ZM12.4851 16.2872C11.3009 16.2482 10.2697 15.5645 9.71569 14.5685C10.3461 13.6115 11.3966 13.0063 12.5996 13.0453C13.7838 13.0844 14.8153 13.768 15.3687 14.7641C14.758 15.721 13.6883 16.3263 12.4851 16.2872ZM10.2509 20.3296C9.08554 20.5835 7.92061 20.1734 7.15672 19.3533C7.51957 18.2792 8.41697 17.42 9.58223 17.1661C10.7472 16.9122 11.9121 17.3222 12.676 18.1424C12.3131 19.2165 11.4158 20.0757 10.2509 20.3296ZM9.02847 24.8017C7.9588 25.3486 6.73641 25.2315 5.80054 24.6262C5.89619 23.4935 6.56481 22.4387 7.63414 21.8922C8.70348 21.3646 9.92586 21.4624 10.8617 22.0874C10.7664 23.2202 10.0978 24.2552 9.02847 24.8017ZM8.91361 29.4498C7.99695 30.2309 6.77494 30.4264 5.72421 30.0747C5.55256 28.9422 5.95326 27.7508 6.87021 26.9696C7.78715 26.1885 8.98994 25.9933 10.0407 26.3447C10.2123 27.4774 9.81129 28.6493 8.91361 29.4498ZM9.888 33.9806C9.18119 34.9766 8.05412 35.4648 6.94659 35.367C6.52629 34.3126 6.62194 33.0824 7.32837 32.0864C8.01626 31.0904 9.143 30.6019 10.2509 30.6997C10.6901 31.7544 10.5944 32.9846 9.888 33.9806ZM11.9121 38.1405C11.4536 39.273 10.4799 40.0347 9.39136 40.2106C8.72274 39.312 8.53183 38.0621 8.97106 36.9296C9.41029 35.7968 10.3843 35.0547 11.4922 34.8595C12.1605 35.7774 12.3517 37.0077 11.9121 38.1405ZM14.8532 41.675C14.6816 42.8859 13.9174 43.8622 12.8862 44.3116C12.0267 43.5889 11.5493 42.4368 11.7213 41.2259C11.874 40.015 12.6572 39.0581 13.6694 38.5896C14.5289 39.312 15.0252 40.4641 14.8532 41.675ZM18.5393 44.3897C18.6731 45.6003 18.1575 46.7331 17.279 47.4168C16.2668 46.9283 15.5218 45.9323 15.4073 44.7218C15.2735 43.5109 15.789 42.3781 16.6675 41.675C17.6797 42.1631 18.4247 43.1592 18.5393 44.3897ZM22.7791 46.0887C23.1801 47.2409 22.9511 48.4712 22.2635 49.35C21.1556 49.1352 20.2009 48.354 19.7998 47.2019C19.3798 46.0497 19.6279 44.8192 20.3154 43.9406C21.404 44.1552 22.3591 44.9366 22.7791 46.0887ZM8.76088 11.7564C8.76088 12.9672 8.15004 14.061 7.21417 14.6663C6.23977 14.0804 5.60968 13.0062 5.59037 11.7954C5.57149 10.5651 6.20192 9.49107 7.13779 8.88578C8.0926 9.47137 8.74195 10.5261 8.76088 11.7564ZM5.93438 16.0724C6.20196 17.2635 5.80054 18.4551 5.01777 19.2556C3.94843 18.8845 3.10783 17.9863 2.84058 16.7951C2.57333 15.6036 2.97404 14.4124 3.77612 13.6116C4.82686 13.9829 5.66713 14.8811 5.93438 16.0724ZM4.04366 20.9155C4.55923 22.0286 4.40655 23.2592 3.79534 24.2162C2.68748 24.0794 1.67527 23.3763 1.17891 22.2632C0.682269 21.1501 0.816061 19.9001 1.42723 18.9625C2.5348 19.0994 3.54702 19.8024 4.04366 20.9155ZM3.20343 26.0323C3.90991 27.0086 4.02472 28.2585 3.60447 29.3133C2.49699 29.4107 1.36987 28.9422 0.663103 27.9656C-0.0626429 26.9893 -0.176842 25.7393 0.24313 24.6846C1.35094 24.5872 2.47768 25.0557 3.20343 26.0323ZM3.39429 31.2268C4.29202 32.0276 4.65487 33.2385 4.48289 34.3516C3.41323 34.6837 2.21043 34.4687 1.31242 33.668C0.415068 32.8478 0.033288 31.6566 0.223823 30.5435C1.29349 30.1918 2.49694 30.4264 3.39429 31.2268ZM4.65487 36.2656C5.68634 36.8708 6.29723 37.9449 6.33571 39.0971C5.36136 39.6439 4.13897 39.683 3.10778 39.0971C2.05738 38.4918 1.46542 37.398 1.40835 36.2656C2.38208 35.699 3.60447 35.66 4.65487 36.2656ZM6.9084 40.9329C8.05407 41.2846 8.85649 42.2219 9.12378 43.335C8.28351 44.0771 7.09931 44.3897 5.95331 44.0187C4.82685 43.6476 4.00551 42.71 3.73826 41.6166C4.57854 40.8549 5.76268 40.5619 6.9084 40.9329ZM10.0596 45.0147C11.2435 45.1121 12.2368 45.8738 12.7145 46.8892C12.0459 47.8072 10.9573 48.354 9.75421 48.2369C8.57002 48.1198 7.59595 47.3777 7.09931 46.362C7.76789 45.4441 8.85648 44.8972 10.0596 45.0147ZM13.9748 48.3347C15.159 48.1782 16.2668 48.7057 16.954 49.604C16.4959 50.639 15.5218 51.4008 14.3377 51.5373C13.1537 51.6934 12.0267 51.1662 11.3395 50.268C11.8165 49.2329 12.7716 48.4712 13.9748 48.3347Z" fill="#890C25"/>
<path fill-rule="evenodd" clip-rule="evenodd" d="M27.9921 0L28.9662 3.1051L32.1556 3.08579L29.5773 4.99938L30.5703 8.10448L27.992 6.1712L25.4327 8.10448L26.4071 4.99938L23.8286 3.08579L27.018 3.1051L27.9921 0ZM20.429 4.90191L19.799 6.91325H17.7363L19.3979 8.14348L18.7675 10.1552L20.429 8.92493L22.1096 10.1552L21.4602 8.14348L23.1411 6.91325H21.0785L20.429 4.90191ZM35.5551 4.90191L36.2045 6.91325H38.2668L36.5863 8.14348L37.2357 10.1552L35.5552 8.92493L33.8936 10.1552L34.524 8.14348L32.8624 6.91325H34.9247L35.5551 4.90191Z" fill="#890C25"/>
<path fill-rule="evenodd" clip-rule="evenodd" d="M27.9921 49.5449C28.7178 49.5449 29.2908 50.1308 29.2908 50.8729C29.2908 51.615 28.7178 52.2009 27.9921 52.2009C27.2856 52.2009 26.6934 51.615 26.6934 50.8729C26.6933 50.1308 27.2856 49.5449 27.9921 49.5449Z" fill="#890C25"/>
</svg>
