<svg width="75" height="70" viewBox="0 0 75 70" fill="none" xmlns="http://www.w3.org/2000/svg">
<path opacity="0.5" d="M0.96139 47.4472L9.2042 42.6878L10.6606 45.2103L20.5157 39.5213V30.2055L20.7695 29.8946C22.5527 27.6989 25.1418 26.2521 27.972 25.9221C23.733 22.8095 23.2413 16.638 26.9757 12.9073C30.3326 9.55039 35.7708 9.55039 39.1279 12.9073C42.8593 16.6387 42.3769 22.8071 38.1316 25.9221C40.965 26.2489 43.5509 27.6989 45.3341 29.8946C45.6482 30.2753 45.5879 30.1103 45.5879 30.5894V39.058C48.2341 39.9528 49.8872 42.6307 49.5413 45.3625H52.9109L65.5261 38.0776C68.2421 36.5133 71.7291 37.4493 73.2965 40.159C74.8734 42.8877 73.7216 46.0193 71.3356 47.8501L54.6591 60.6749L23.2003 60.678L20.4939 62.2391L21.9058 64.6822L12.698 70L0 48.0056L0.96139 47.4472ZM8.39543 45.7116L3.02372 48.8147L13.51 66.9727L18.8785 63.8697L18.5803 63.3493H18.5739L8.74722 46.317L8.39543 45.7116ZM47.1175 45.9559C48.0027 43.6651 46.3528 40.9777 43.6971 40.9777H22.42L11.7656 47.1299L19.3868 60.3291L22.62 58.4634H53.905L69.9723 46.1081C70.8163 45.4545 71.4255 44.5978 71.673 43.684C72.4409 40.7999 69.1823 38.5217 66.6154 40.0035L53.4731 47.5899H48.774C47.7301 49.3793 45.8105 50.5216 43.691 50.5216L30.9962 50.5248V48.3038H43.6943C45.2204 48.3038 46.5749 47.3488 47.1175 45.9559ZM57.1789 6.10486C61.7415 6.10486 65.4445 9.80445 65.4445 14.3672C65.4445 18.9299 61.7449 22.6295 57.1789 22.6295C52.6195 22.6295 48.9166 18.933 48.9166 14.3672C48.9166 9.8077 52.6194 6.10486 57.1789 6.10486ZM61.4528 10.0964C59.0985 7.74213 55.2688 7.74213 52.9111 10.0964C50.5505 12.457 50.5505 16.2804 52.9111 18.6413C55.2653 21.0019 59.095 21.0019 61.4528 18.6413C63.8134 16.2775 63.8134 12.4574 61.4528 10.0964ZM43.3638 38.519V30.9992C42.5896 30.1299 41.644 29.416 40.5906 28.9083C39.4674 28.3753 38.2046 28.0707 36.8657 28.0707H29.2317C27.896 28.0707 26.6332 28.3721 25.5068 28.9083C24.4502 29.416 23.5079 30.133 22.7368 30.9992V38.519H43.3638ZM37.5542 14.4842C35.0667 11.9967 31.034 11.9967 28.543 14.4842C26.0555 16.9749 26.0555 21.0076 28.543 23.5019C31.0306 25.9895 35.0664 25.9895 37.5542 23.5019C40.0449 21.0112 40.0449 16.9752 37.5542 14.4842ZM57.1784 0C65.1614 0 71.6277 6.46631 71.6277 14.4493C71.6277 19.7671 64.2158 31.5953 59.9799 38.5726C58.6981 40.6857 55.6648 40.6857 54.3829 38.5726C50.1472 31.5986 42.7351 19.7671 42.7351 14.4493C42.732 6.46631 49.1988 0 57.1784 0ZM65.8249 5.80002C61.0497 1.02483 53.3113 1.02483 48.5327 5.80002C46.318 8.01472 44.9538 11.0702 44.9538 14.449C44.9538 18.8244 51.2741 29.2093 55.5351 36.2151C55.5858 36.3007 55.6334 36.3801 55.5351 36.2151L56.2743 37.4271C56.6837 38.1061 57.6768 38.1061 58.0861 37.4271L58.8254 36.2151C58.7238 36.3801 58.7714 36.3007 58.8254 36.2151C63.0897 29.2093 69.4067 18.8246 69.4067 14.449C69.4035 11.073 68.0396 8.01432 65.8249 5.80002ZM58.8254 36.2151C58.873 36.1294 58.9269 36.0406 58.8254 36.2151V36.2151ZM55.5384 36.2151C55.4305 36.0406 55.4813 36.1294 55.5384 36.2151V36.2151Z" fill="white"/>
</svg>
