<svg width="74" height="70" viewBox="0 0 74 70" fill="none" xmlns="http://www.w3.org/2000/svg">
<g opacity="0.5">
<path d="M48.4817 57.926C50.3228 57.926 53.0314 56.2615 56.3061 53.1397C57.9546 51.5681 59.7038 49.6763 61.6101 47.4389C63.5444 45.1687 68.8023 38.5529 69.3115 37.9543C70.6575 36.372 70.3332 34.4971 68.7495 33.282C67.0851 32.0048 64.9235 32.1572 63.2777 34.0618C60.1885 37.6363 56.4421 41.7066 52.0372 46.2743C50.5927 47.7721 48.2929 45.7228 49.615 44.1159C50.1651 43.4474 50.4696 42.6136 50.4696 41.7287C50.4696 39.6704 48.8146 37.9946 46.7813 37.9678H27.8102C25.1231 37.9678 21.9812 39.4631 19.8626 41.6614C17.4628 44.1514 15.5434 46.2912 14.1077 48.0751L20.0937 57.926H48.4817ZM60.8211 31.9388C63.6218 28.698 67.7313 28.4082 70.726 30.7061C73.7119 32.9971 74.4012 36.9821 71.7846 40.058C71.3224 40.6014 66.0634 47.2185 64.0815 49.5446C62.1082 51.8606 60.2865 53.8308 58.5464 55.4897C54.7047 59.1521 51.4164 61.1728 48.4817 61.1728C36.4006 61.1728 27.3398 61.1728 21.2993 61.1728C19.284 61.1728 11.9056 45.6299 12.3849 45.0591C13.7688 43.4109 15.4814 41.5284 17.5248 39.4083C20.2248 36.6067 24.1871 34.721 27.8102 34.721H41.6219C43.9485 34.721 43.9485 34.721 46.8025 34.7212C50.0452 34.7637 52.7524 37.0074 53.507 40.0218C56.264 37.0853 58.7021 34.3908 60.8211 31.9388Z" fill="white"/>
<path d="M13.9248 66.3567L20.4857 62.5688L10.2042 44.7607L3.64329 48.5486L13.9248 66.3567ZM1.08263 46.2779L9.51805 41.4077C10.5533 40.81 11.8771 41.1647 12.4748 42.2L23.8386 61.8827C24.4364 62.9179 24.0816 64.2417 23.0464 64.8395L14.6109 69.7096C13.5757 70.3074 12.2519 69.9527 11.6541 68.9174L0.290353 49.2347C-0.307365 48.1995 0.0473478 46.8756 1.08263 46.2779Z" fill="white"/>
<path d="M35.3647 37.9678C34.4682 37.9678 33.7414 37.241 33.7414 36.3444C33.7414 35.4478 34.4682 34.721 35.3647 34.721H46.6817C50.5668 34.721 53.7164 37.8705 53.7164 41.7557C53.7164 45.6409 50.5668 48.7904 46.6817 48.7904H35.859C34.9625 48.7904 34.2356 48.0636 34.2356 47.167C34.2356 46.2705 34.9625 45.5436 35.859 45.5436H46.6817C48.7737 45.5436 50.4696 43.8477 50.4696 41.7557C50.4696 39.6637 48.7737 37.9678 46.6817 37.9678H35.3647Z" fill="white"/>
<path d="M27.7421 30.3919V33.6387H48.3051V30.3919H27.7421ZM51.5519 27.1451V36.8855H24.4953V27.1451H51.5519Z" fill="white"/>
<path d="M27.7421 23.8983V27.1451H48.3051V23.8983H27.7421ZM51.5519 20.6516V30.3919H24.4953V20.6516H51.5519Z" fill="white"/>
<path d="M27.7421 17.4048V20.6516H48.3051V17.4048H27.7421ZM51.5519 14.158V23.8983H24.4953V14.158H51.5519Z" fill="white"/>
<path d="M29.5948 3.9765L28.7545 7.11266L48.6168 12.4348L49.4572 9.2986L29.5948 3.9765ZM53.4336 7.00277L50.9127 16.4113L24.778 9.40849L27.299 0L53.4336 7.00277Z" fill="white"/>
</g>
</svg>
